<?xml version="1.0" encoding="iso-8859-1"?>
<!-- Generator: Adobe Illustrator 19.0.0, SVG Export Plug-In . SVG Version: 6.00 Build 0)  -->
<svg version="1.1" id="Layer_1" xmlns="http://www.w3.org/2000/svg" xmlns:xlink="http://www.w3.org/1999/xlink" x="0px" y="0px"
	 viewBox="0 0 314.965 314.965" style="enable-background:new 0 0 314.965 314.965;" xml:space="preserve">
<g id="XMLID_93_">
	<path id="XMLID_102_" d="M104.982,15.004C44.896,15.004,0,38.758,0,59.995c0,21.238,44.896,44.992,104.982,44.992
		s104.983-23.754,104.983-44.992C209.966,38.758,165.068,15.004,104.982,15.004z"/>
	<path id="XMLID_103_" d="M0,239.97c0,21.237,44.896,44.991,104.982,44.991c8.769,0,17.211-0.51,25.241-1.439
		c-6.77-8.698-12.367-18.35-16.559-28.716c-2.881,0.097-5.771,0.164-8.683,0.164c-34.333,0-66.847-6.803-91.55-19.155
		C8.567,233.383,4.091,230.77,0,228.004V239.97z"/>
	<path id="XMLID_104_" d="M104.982,194.977c-34.333,0-66.846-6.803-91.55-19.155c-4.865-2.432-9.342-5.045-13.433-7.81v11.965
		c0,21.238,44.896,44.992,104.982,44.992c0.308,0,0.612-0.005,0.919-0.006c-0.616-4.916-0.937-9.923-0.937-15.003
		c0-5.078,0.319-10.082,0.935-14.994C105.593,194.967,105.29,194.977,104.982,194.977z"/>
	<path id="XMLID_105_" d="M104.982,134.987c-34.333,0-66.846-6.803-91.55-19.155c-4.865-2.433-9.342-5.045-13.433-7.811v11.966
		c0,21.237,44.896,44.99,104.982,44.99c2.976,0,5.913-0.06,8.811-0.174c4.657-11.423,11.019-21.974,18.778-31.331
		C123.589,134.463,114.358,134.987,104.982,134.987z"/>
	<path id="XMLID_106_" d="M149.981,160.244c-6.49,9.757-11.127,20.846-13.408,32.762c-1.051,5.493-1.608,11.16-1.608,16.955
		c0,4.357,0.317,8.641,0.919,12.834c1.477,10.301,4.704,20.041,9.37,28.914c4.896,9.311,11.372,17.666,19.075,24.701
		c16.01,14.621,37.299,23.551,60.636,23.551c49.626,0,90-40.374,90-90c0-49.627-40.374-90-90-90c-5.13,0-10.158,0.438-15.056,1.266
		C184.962,125.446,163.473,139.965,149.981,160.244z M229.635,165.481c15.872,0,26.958,9.46,26.958,23.004
		c0,4.774-2.851,7.625-7.625,7.625c-5.268,0-7.625-3.333-7.625-6.637c0-8.386-8.111-9.291-11.599-9.291
		c-8.02,0-11.598,3.916-11.598,12.697v3.029h14.563c3.717,0,6.857,3.19,6.857,6.967c0,3.78-3.076,6.855-6.857,6.855h-14.563v2.546
		h14.563c3.717,0,6.857,3.191,6.857,6.966c0,3.78-3.076,6.855-6.857,6.855h-14.563v1.383c0,8.248,3.83,12.258,11.708,12.258
		c3.454,0,11.488-0.927,11.488-9.512c0-0.079,0.002-0.157,0.007-0.236c0.178-3.003,2.279-6.51,7.618-6.51
		c4.774,0,7.625,2.851,7.625,7.625c0,13.738-11.086,23.334-26.958,23.334c-9.123,0-16.237-2.999-20.828-8.454
		c-3.011-3.576-4.936-8.209-5.623-13.754c-0.188-1.518-0.287-3.101-0.287-4.751v-1.383h-2.811c-3.846,0-6.746-2.947-6.746-6.855
		c0-3.906,2.963-6.966,6.746-6.966h2.811v-2.546h-2.811c-3.792,0-6.659-2.868-6.739-6.694c0-0.055-0.007-0.107-0.007-0.161
		c0-3.906,2.963-6.967,6.746-6.967h1.981h0.829v-0.866v-2.163c0-8.751,2.464-15.624,7.069-20.299
		C214.524,167.954,221.183,165.481,229.635,165.481z"/>
</g>
<g>
</g>
<g>
</g>
<g>
</g>
<g>
</g>
<g>
</g>
<g>
</g>
<g>
</g>
<g>
</g>
<g>
</g>
<g>
</g>
<g>
</g>
<g>
</g>
<g>
</g>
<g>
</g>
<g>
</g>
</svg>
